# xmcd CD database file
#
# Track frame offsets:
#	182
#	21647
#	34150
#	48945
#	68680
#	88732
#	101892
#	114805
#	127282
#	148890
#	169342
#	185282
#	208297
#	222657
#	245047
#	266985
#	288112
#	304532
#	322727
#
# Disc length: 4532 seconds
#
# Revision: 0
# Processed by: cddbd v1.5.1PL0 Copyright (c) Steve Scherf et al.
# Submitted via: CDex 1.50beta10
#
DISCID=2d11b213
DTITLE=Muddy Waters - Muddy Waters at Newport/Muddy Waters Live
DYEAR=1990
DGENRE=Blues
TTITLE0=I Got My Brand On You
TTITLE1=I'm Your Hoochie Koochie Man
TTITLE2=Baby, Please Don't Go
TTITLE3=Soon Forgotten
TTITLE4=I Wanna Put A Tiger In Your Tank
TTITLE5=I Feel So Good
TTITLE6=Got My Mojo Working
TTITLE7=Got My Mojo Working (Part 2)
TTITLE8=Goodbye Newport Blues
TTITLE9=What Is That She Got
TTITLE10=You Don't Have To Go
TTITLE11=Strange Woman
TTITLE12=Blow Wind Blow
TTITLE13=Country Boy
TTITLE14=Nine Below Zero
TTITLE15=Stormy Monday Blues
TTITLE16=Mudcat
TTITLE17=Boom Boom
TTITLE18=C.C. Woman
EXTD=YEAR: 1990
EXTT0=
EXTT1=
EXTT2=
EXTT3=
EXTT4=
EXTT5=
EXTT6=
EXTT7=
EXTT8=
EXTT9=
EXTT10=
EXTT11=
EXTT12=
EXTT13=
EXTT14=
EXTT15=
EXTT16=
EXTT17=
EXTT18=
PLAYORDER=
